<svg width="120" height="24" viewBox="0 0 120 24" fill="none" xmlns="http://www.w3.org/2000/svg">
<path d="M18.5017 11.1232C17.6573 6.98486 13.8825 3.8512 9.33775 3.8512C4.17219 3.8512 0 7.86994 0 12.8455C0 17.8211 4.17219 21.8399 9.33775 21.8399V18.4431C6.75497 18.4431 4.56954 16.8164 3.79967 14.5678H14.851H18.4768C18.5762 14.0177 18.6507 13.4436 18.6507 12.8455C18.6507 12.2475 18.601 11.6734 18.5017 11.1232ZM3.79967 11.1232C4.5447 8.87463 6.73013 7.24799 9.33775 7.24799C11.9454 7.24799 14.106 8.87463 14.8758 11.1232H3.79967Z" fill="#161616"/>
<path d="M110.662 3.8512C105.496 3.8512 101.324 7.86994 101.324 12.8455C101.324 17.8211 105.496 21.8399 110.662 21.8399C115.828 21.8399 120 17.8211 120 12.8455C120 7.86994 115.803 3.8512 110.662 3.8512ZM110.662 18.4431C107.458 18.4431 104.851 15.9314 104.851 12.8455C104.851 9.75971 107.458 7.24799 110.662 7.24799C113.866 7.24799 116.473 9.75971 116.473 12.8455C116.473 15.9314 113.866 18.4431 110.662 18.4431Z" fill="#161616"/>
<path d="M68.6674 7.36786V12.774L88.982 0.191528H94.5201L74.8015 12.5827L91.8379 23.1558H86.275L71.9952 14.305L65.0664 18.8261V13.8983V7.36786H68.6674Z" fill="#161616"/>
<path d="M33.5259 5.90851L53.8902 18.7541V7.12848H50.165V12.6303L29.8008 0V23.1556H33.5259V5.90851Z" fill="#161616"/>
</svg>
