<svg width="25" height="25" viewBox="0 0 25 25" fill="none" xmlns="http://www.w3.org/2000/svg">
<g clip-path="url(#clip0_483_684)">
<path d="M12.2571 2.20724C15.5321 2.20724 15.9199 2.22161 17.2079 2.27906C18.4049 2.33173 19.0512 2.53282 19.4822 2.7004C20.0519 2.92065 20.4637 3.18877 20.8898 3.6149C21.3207 4.04581 21.5841 4.45279 21.8043 5.02256C21.9719 5.45347 22.173 6.10463 22.2256 7.29683C22.2831 8.58958 22.2975 8.9774 22.2975 12.2476C22.2975 15.5225 22.2831 15.9103 22.2256 17.1983C22.173 18.3953 21.9719 19.0417 21.8043 19.4726C21.5841 20.0423 21.3159 20.4541 20.8898 20.8802C20.4589 21.3112 20.0519 21.5745 19.4822 21.7947C19.0512 21.9623 18.4001 22.1634 17.2079 22.2161C15.9151 22.2735 15.5273 22.2879 12.2571 22.2879C8.98219 22.2879 8.59437 22.2735 7.30641 22.2161C6.10942 22.1634 5.46305 21.9623 5.03213 21.7947C4.46237 21.5745 4.0506 21.3064 3.62448 20.8802C3.19356 20.4493 2.93022 20.0423 2.70998 19.4726C2.5424 19.0417 2.34131 18.3905 2.28864 17.1983C2.23118 15.9056 2.21682 15.5177 2.21682 12.2476C2.21682 8.97261 2.23118 8.58479 2.28864 7.29683C2.34131 6.09984 2.5424 5.45347 2.70998 5.02256C2.93022 4.45279 3.19835 4.04103 3.62448 3.6149C4.05539 3.18398 4.46237 2.92065 5.03213 2.7004C5.46305 2.53282 6.11421 2.33173 7.30641 2.27906C8.59437 2.22161 8.98219 2.20724 12.2571 2.20724ZM12.2571 0C8.92952 0 8.51297 0.0143638 7.20586 0.0718192C5.90354 0.129275 5.00819 0.339944 4.23254 0.641585C3.42338 0.957589 2.73871 1.37414 2.05882 2.05882C1.37414 2.73871 0.957589 3.42338 0.641585 4.22776C0.339944 5.00819 0.129275 5.89875 0.0718192 7.20107C0.0143638 8.51297 0 8.92952 0 12.2571C0 15.5848 0.0143638 16.0013 0.0718192 17.3084C0.129275 18.6107 0.339944 19.5061 0.641585 20.2817C0.957589 21.0909 1.37414 21.7756 2.05882 22.4555C2.73871 23.1354 3.42338 23.5567 4.22776 23.8679C5.00819 24.1696 5.89875 24.3802 7.20107 24.4377C8.50818 24.4951 8.92473 24.5095 12.2524 24.5095C15.58 24.5095 15.9965 24.4951 17.3036 24.4377C18.606 24.3802 19.5013 24.1696 20.277 23.8679C21.0813 23.5567 21.766 23.1354 22.4459 22.4555C23.1258 21.7756 23.5471 21.0909 23.8583 20.2865C24.16 19.5061 24.3706 18.6155 24.4281 17.3132C24.4856 16.0061 24.4999 15.5896 24.4999 12.2619C24.4999 8.93431 24.4856 8.51776 24.4281 7.21065C24.3706 5.90833 24.16 5.01298 23.8583 4.23733C23.5567 3.42338 23.1401 2.73871 22.4555 2.05882C21.7756 1.37893 21.0909 0.957589 20.2865 0.646373C19.5061 0.344732 18.6155 0.134063 17.3132 0.0766071C16.0013 0.0143638 15.5848 0 12.2571 0Z" fill="#F2F2F2"/>
<path d="M12.2571 5.96094C8.78104 5.96094 5.96094 8.78104 5.96094 12.2571C5.96094 15.7331 8.78104 18.5532 12.2571 18.5532C15.7331 18.5532 18.5532 15.7331 18.5532 12.2571C18.5532 8.78104 15.7331 5.96094 12.2571 5.96094ZM12.2571 16.3412C10.002 16.3412 8.17297 14.5122 8.17297 12.2571C8.17297 10.002 10.002 8.17297 12.2571 8.17297C14.5122 8.17297 16.3412 10.002 16.3412 12.2571C16.3412 14.5122 14.5122 16.3412 12.2571 16.3412Z" fill="#F2F2F2"/>
<path d="M20.2718 5.71209C20.2718 6.52604 19.6111 7.18199 18.8019 7.18199C17.988 7.18199 17.332 6.52125 17.332 5.71209C17.332 4.89814 17.9928 4.24219 18.8019 4.24219C19.6111 4.24219 20.2718 4.90293 20.2718 5.71209Z" fill="#F2F2F2"/>
</g>
<defs>
<clipPath id="clip0_483_684">
<rect width="24.5143" height="24.5143" fill="white"/>
</clipPath>
</defs>
</svg>
