<svg width="172" height="35" viewBox="0 0 172 35" fill="none" xmlns="http://www.w3.org/2000/svg">
<path d="M26.5191 16.9257C25.3088 10.994 19.8982 6.50244 13.3841 6.50244C5.98015 6.50244 0 12.2627 0 19.3944C0 26.526 5.98015 32.2863 13.3841 32.2863V27.4175C9.68215 27.4175 6.54969 25.086 5.44621 21.863H21.2865H26.4835C26.6259 21.0744 26.7327 20.2515 26.7327 19.3944C26.7327 18.5372 26.6615 17.7143 26.5191 16.9257ZM5.44621 16.9257C6.51409 13.7027 9.64655 11.3712 13.3841 11.3712C17.1217 11.3712 20.2186 13.7027 21.3221 16.9257H5.44621Z" fill="white"/>
<path d="M158.616 6.50244C151.212 6.50244 145.232 12.2627 145.232 19.3944C145.232 26.526 151.212 32.2863 158.616 32.2863C166.02 32.2863 172 26.526 172 19.3944C172 12.2627 165.984 6.50244 158.616 6.50244ZM158.616 27.4175C154.024 27.4175 150.286 23.8174 150.286 19.3944C150.286 14.9713 154.024 11.3712 158.616 11.3712C163.208 11.3712 166.945 14.9713 166.945 19.3944C166.945 23.8174 163.208 27.4175 158.616 27.4175Z" fill="white"/>
<path d="M98.4236 11.5429V19.2918L127.541 1.25684H135.479L107.216 19.0175L131.635 34.1723H123.661L103.194 21.4862L93.2622 27.9664V20.9033V11.5429H98.4236Z" fill="white"/>
<path d="M48.054 9.45131L77.2428 27.8634V11.1999H71.9034V19.086L42.7146 0.982422V34.1722H48.054V9.45131Z" fill="white"/>
</svg>
