<svg width="29" height="22" viewBox="0 0 29 22" fill="none" xmlns="http://www.w3.org/2000/svg">
<g clip-path="url(#clip0_483_670)">
<path d="M28.4135 21.6907V21.7472H28.4675C28.4777 21.7474 28.4877 21.7449 28.4965 21.74C28.5037 21.7351 28.5078 21.727 28.5074 21.7184C28.5078 21.71 28.5037 21.7021 28.4965 21.6974C28.4878 21.6923 28.4777 21.6897 28.4675 21.6902H28.4135V21.6907ZM28.4681 21.6507C28.4913 21.6494 28.5142 21.6558 28.5331 21.6691C28.5483 21.6813 28.5568 21.6999 28.5558 21.7191C28.5565 21.7357 28.5498 21.7517 28.5375 21.7631C28.523 21.7754 28.5048 21.7828 28.4857 21.7841L28.5581 21.8647H28.5023L28.4357 21.7847H28.4141V21.8647H28.3674V21.6509H28.4688L28.4681 21.6507ZM28.4536 21.9384C28.4781 21.9387 28.5024 21.9338 28.5248 21.9243C28.5464 21.9152 28.5661 21.9022 28.5828 21.886C28.5995 21.8698 28.6128 21.8506 28.622 21.8295C28.6411 21.7847 28.6411 21.7344 28.622 21.6896C28.6127 21.6685 28.5993 21.6494 28.5828 21.6331C28.5661 21.6169 28.5464 21.6039 28.5248 21.5948C28.5022 21.5858 28.478 21.5813 28.4536 21.5815C28.4288 21.5813 28.4042 21.5858 28.3812 21.5948C28.3591 21.6037 28.3389 21.6167 28.3219 21.6331C28.2695 21.6855 28.2543 21.7634 28.2832 21.8309C28.292 21.8521 28.3052 21.8713 28.3219 21.8874C28.3389 21.9038 28.3591 21.9168 28.3812 21.9257C28.4041 21.9352 28.4287 21.9401 28.4536 21.9398V21.9384ZM28.4536 21.5301C28.5173 21.53 28.5785 21.5544 28.6239 21.5979C28.6458 21.6188 28.6633 21.6437 28.6752 21.6712C28.7003 21.7283 28.7003 21.7929 28.6752 21.85C28.663 21.8773 28.6456 21.9022 28.6239 21.9233C28.6017 21.9441 28.5758 21.9608 28.5475 21.9728C28.5178 21.9851 28.4859 21.9913 28.4536 21.9911C28.421 21.9914 28.3886 21.9851 28.3586 21.9728C28.33 21.9611 28.3039 21.9443 28.2816 21.9233C28.2599 21.9014 28.2428 21.8757 28.231 21.8476C28.206 21.7905 28.206 21.7259 28.231 21.6688C28.243 21.6413 28.2604 21.6164 28.2823 21.5955C28.3043 21.5741 28.3305 21.5573 28.3593 21.546C28.3894 21.5337 28.4217 21.5274 28.4544 21.5277L28.4536 21.5301ZM6.26232 20.7045C6.26232 20.2968 6.53623 19.962 6.98391 19.962C7.41174 19.962 7.70044 20.2824 7.70044 20.7045C7.70044 21.1265 7.41174 21.447 6.98391 21.447C6.53623 21.447 6.26232 21.1121 6.26232 20.7045ZM8.18812 20.7045V19.5444H7.67087V19.827C7.50681 19.6182 7.25797 19.4872 6.91957 19.4872C6.2529 19.4872 5.72971 19.997 5.72971 20.705C5.72971 21.4131 6.25261 21.9229 6.91957 21.9229C7.25783 21.9229 7.50681 21.7918 7.67087 21.5831V21.8647H8.18754V20.7045H8.18812ZM25.6652 20.7045C25.6652 20.2968 25.9391 19.962 26.387 19.962C26.8152 19.962 27.1035 20.2824 27.1035 20.7045C27.1035 21.1265 26.8152 21.447 26.387 21.447C25.9393 21.447 25.6652 21.1121 25.6652 20.7045ZM27.5916 20.7045V18.6133H27.0739V19.827C26.9099 19.6182 26.661 19.4872 26.3226 19.4872C25.6559 19.4872 25.1328 19.997 25.1328 20.705C25.1328 21.4131 25.6557 21.9229 26.3226 21.9229C26.661 21.9229 26.9099 21.7918 27.0739 21.5831V21.8647H27.5916V20.7045ZM14.6078 19.9381C14.9412 19.9381 15.1552 20.1418 15.2099 20.5006H13.9757C14.0309 20.1657 14.2393 19.9381 14.6078 19.9381ZM14.6183 19.4859C13.9212 19.4859 13.4335 19.9805 13.4335 20.7038C13.4335 21.4412 13.9407 21.9216 14.6529 21.9216C15.0112 21.9216 15.3393 21.8344 15.628 21.5966L15.3745 21.2229C15.1751 21.3783 14.9212 21.4655 14.6825 21.4655C14.3491 21.4655 14.0457 21.315 13.971 20.8975H15.7373C15.7423 20.8348 15.7475 20.7715 15.7475 20.7036C15.7423 19.9806 15.2841 19.4859 14.6183 19.4859ZM20.8629 20.7036C20.8629 20.296 21.1368 19.9611 21.5845 19.9611C22.0123 19.9611 22.301 20.2816 22.301 20.7036C22.301 21.1257 22.0123 21.4461 21.5845 21.4461C21.1368 21.4461 20.8629 21.1113 20.8629 20.7036ZM22.7886 20.7036V19.5444H22.2716V19.827C22.107 19.6182 21.8587 19.4872 21.5203 19.4872C20.8536 19.4872 20.3304 19.997 20.3304 20.705C20.3304 21.4131 20.8533 21.9229 21.5203 21.9229C21.8587 21.9229 22.107 21.7918 22.2716 21.5831V21.8647H22.7887V20.7045L22.7886 20.7036ZM17.9419 20.7036C17.9419 21.4071 18.4442 21.9215 19.2109 21.9215C19.5691 21.9215 19.8078 21.8438 20.0659 21.645L19.8175 21.2373C19.6233 21.3734 19.4194 21.4461 19.1944 21.4461C18.7815 21.4412 18.4778 21.1501 18.4778 20.7036C18.4778 20.2571 18.7815 19.9662 19.1944 19.9611C19.4188 19.9611 19.6228 20.0339 19.8175 20.17L20.0659 19.7623C19.8074 19.5635 19.5687 19.4858 19.2109 19.4858C18.4442 19.4858 17.9419 20 17.9419 20.7036ZM24.61 19.4858C24.3116 19.4858 24.1173 19.6219 23.9829 19.8256V19.5444H23.4703V21.8634H23.9881V20.5635C23.9881 20.1797 24.1573 19.9665 24.4954 19.9665C24.6061 19.9649 24.716 19.9848 24.8188 20.0248L24.9783 19.5495C24.8638 19.5056 24.7145 19.4862 24.6097 19.4862L24.61 19.4858ZM10.7454 19.7288C10.4965 19.5689 10.1536 19.4862 9.77536 19.4862C9.17276 19.4862 8.78478 19.7678 8.78478 20.2286C8.78478 20.6067 9.07363 20.84 9.60551 20.9127L9.84986 20.9467C10.1335 20.9855 10.2674 21.0583 10.2674 21.1893C10.2674 21.3686 10.079 21.4709 9.72522 21.4709C9.36696 21.4709 9.10841 21.3592 8.93406 21.2283L8.69102 21.6215C8.97464 21.8252 9.3329 21.9225 9.72087 21.9225C10.4078 21.9225 10.8059 21.6071 10.8059 21.1655C10.8059 20.7579 10.4926 20.5447 9.97493 20.4719L9.73116 20.4374C9.50725 20.4092 9.32783 20.3652 9.32783 20.2098C9.32783 20.0402 9.49696 19.9382 9.78073 19.9382C10.0843 19.9382 10.3783 20.0498 10.5223 20.137L10.7462 19.7294L10.7454 19.7288ZM17.4194 19.4866C17.121 19.4866 16.9267 19.6227 16.7929 19.8265V19.5444H16.2803V21.8634H16.7975V20.5635C16.7975 20.1797 16.9667 19.9665 17.3048 19.9665C17.4155 19.9649 17.5254 19.9848 17.6283 20.0248L17.7877 19.5495C17.6732 19.5056 17.5239 19.4862 17.4191 19.4862L17.4194 19.4866ZM13.0055 19.5444H12.1597V18.8409H11.6368V19.5444H11.1544V20.0053H11.6368V21.0632C11.6368 21.6013 11.851 21.9218 12.4629 21.9218C12.6874 21.9218 12.9459 21.8539 13.11 21.7424L12.9606 21.3106C12.8062 21.3978 12.6371 21.4418 12.5026 21.4418C12.2441 21.4418 12.1597 21.2863 12.1597 21.0536V20.0058H13.0055V19.5444ZM5.27232 21.864V20.4086C5.27232 19.8605 4.91406 19.4917 4.33652 19.4868C4.0329 19.4818 3.71971 19.574 3.50044 19.8994C3.33638 19.6422 3.07783 19.4868 2.71435 19.4868C2.46029 19.4868 2.21203 19.5595 2.01768 19.8311V19.5444H1.5V21.8634H2.02174V20.5776C2.02174 20.175 2.25072 19.9611 2.60435 19.9611C2.94783 19.9611 3.12159 20.1794 3.12159 20.5725V21.8631H3.64449V20.5773C3.64449 20.1748 3.88319 19.9608 4.22652 19.9608C4.57971 19.9608 4.74826 20.1791 4.74826 20.5722V21.8628L5.27232 21.864Z" fill="white"/>
<path d="M28.7081 14.1506V13.8115H28.6175L28.5127 14.0442L28.4085 13.8115H28.3176V14.1506H28.382V13.8952L28.4799 14.1156H28.5466L28.6446 13.8946V14.1506H28.7083H28.7081ZM28.1334 14.1506V13.8696H28.2494V13.8124H27.9531V13.8696H28.0691V14.1506H28.1328H28.1334Z" fill="#F79410"/>
<path d="M18.4147 15.6042H10.5762V1.87012H18.4149L18.4147 15.6042Z" fill="#FF5F00"/>
<path d="M11.0725 8.73753C11.0725 5.95157 12.4104 3.46982 14.4941 1.87048C12.9168 0.65807 10.9662 5.54288e-05 8.95783 0.00293913C4.01044 0.00293913 0 3.91349 0 8.73753C0 13.5616 4.01044 17.4721 8.95783 17.4721C10.9663 17.475 12.9169 16.817 14.4941 15.6046C12.4107 14.0055 11.0725 11.5236 11.0725 8.73753Z" fill="#EB001B"/>
<path d="M28.9889 8.73753C28.9889 13.5616 24.9785 17.4721 20.0311 17.4721C18.0224 17.475 16.0716 16.817 14.4941 15.6046C16.5782 14.0052 17.9162 11.5236 17.9162 8.73753C17.9162 5.95143 16.5782 3.46982 14.4941 1.87048C16.0715 0.658106 18.0224 0.000105813 20.031 0.0029388C24.9783 0.0029388 28.9889 3.91349 28.9889 8.73753Z" fill="#F79E1B"/>
</g>
<defs>
<clipPath id="clip0_483_670">
<rect width="29" height="22" fill="white"/>
</clipPath>
</defs>
</svg>
