<svg width="25" height="25" viewBox="0 0 25 25" fill="none" xmlns="http://www.w3.org/2000/svg">
<path d="M17.5437 8.84905C19.1202 9.97995 21.0513 10.6453 23.1371 10.6453V6.61737C22.7424 6.61746 22.3487 6.57615 21.9625 6.49404V9.66462C19.8769 9.66462 17.9459 8.99923 16.3691 7.86841V16.0883C16.3691 20.2003 13.0475 23.5336 8.95032 23.5336C7.42157 23.5336 6.00066 23.0697 4.82031 22.2743C6.16749 23.6566 8.04622 24.5142 10.1247 24.5142C14.2221 24.5142 17.5439 21.181 17.5439 17.0688V8.84905H17.5437ZM18.9928 4.78532C18.1872 3.90203 17.6582 2.76053 17.5437 1.49855V0.980469H16.4306C16.7108 2.58444 17.6665 3.95478 18.9928 4.78532ZM7.41177 19.1188C6.96165 18.5265 6.71841 17.802 6.71949 17.057C6.71949 15.1763 8.23877 13.6515 10.1132 13.6515C10.4625 13.6514 10.8097 13.705 11.1426 13.8111V9.69306C10.7536 9.63955 10.3609 9.61684 9.96845 9.62517V12.8304C9.6353 12.7244 9.28791 12.6706 8.9385 12.6709C7.06412 12.6709 5.54493 14.1956 5.54493 16.0766C5.54493 17.4065 6.30432 18.5579 7.41177 19.1188Z" fill="#FF004F"/>
<path d="M16.3702 7.86833C17.9471 8.99914 19.878 9.66454 21.9636 9.66454V6.49395C20.7994 6.24509 19.7688 5.63455 18.9939 4.78532C17.6676 3.95469 16.7119 2.58435 16.4317 0.980469H13.5078V17.0686C13.5012 18.9442 11.9845 20.4628 10.1141 20.4628C9.01197 20.4628 8.0328 19.9356 7.41267 19.1188C6.30531 18.5579 5.54592 17.4064 5.54592 16.0766C5.54592 14.1959 7.06511 12.671 8.93949 12.671C9.29862 12.671 9.64475 12.7271 9.96944 12.8305V9.62525C5.94425 9.70871 2.70703 13.0094 2.70703 17.0687C2.70703 19.0951 3.51317 20.9321 4.82155 22.2744C6.0019 23.0697 7.42281 23.5336 8.95156 23.5336C13.0488 23.5336 16.3703 20.2003 16.3703 16.0883V7.86833H16.3702Z" fill="#F2F2F2"/>
<path d="M21.9624 6.49404V5.63674C20.9126 5.63834 19.8834 5.34329 18.9927 4.78533C19.7812 5.65163 20.8194 6.24896 21.9624 6.49404ZM16.4305 0.980555C16.4038 0.827267 16.3833 0.672969 16.369 0.518083V0H12.3319V16.0883C12.3254 17.9636 10.8088 19.4823 8.93828 19.4823C8.38912 19.4823 7.87063 19.3515 7.41146 19.119C8.03159 19.9357 9.01076 20.4628 10.1129 20.4628C11.9831 20.4628 13.5001 18.9443 13.5066 17.0688V0.980555H16.4305ZM9.96839 9.62534V8.71268C9.63105 8.6664 9.29095 8.64318 8.95043 8.64335C4.85285 8.64327 1.53125 11.9766 1.53125 16.0883C1.53125 18.6661 2.8367 20.9379 4.82042 22.2743C3.51204 20.9321 2.7059 19.095 2.7059 17.0687C2.7059 13.0094 5.94304 9.70879 9.96839 9.62534Z" fill="#00F2EA"/>
</svg>
