<svg width="50" height="16" viewBox="0 0 50 16" fill="none" xmlns="http://www.w3.org/2000/svg">
<path d="M21.8833 15.2683H17.9059L20.3917 0.582723H24.3696L21.8833 15.2683ZM14.5597 0.582723L10.7678 10.6836L10.3191 8.50847L10.3195 8.50926L8.98113 1.90499C8.98113 1.90499 8.8193 0.582723 7.09435 0.582723H0.825512L0.751953 0.831385C0.751953 0.831385 2.66898 1.21479 4.91252 2.50995L8.36814 15.2687H12.5124L18.8405 0.582723H14.5597ZM45.8447 15.2683H49.4969L46.3126 0.58233H43.1152C41.6388 0.58233 41.2791 1.67676 41.2791 1.67676L35.347 15.2683H39.4933L40.3225 13.0869H45.3788L45.8447 15.2683ZM41.4679 10.0735L43.5578 4.57781L44.7335 10.0735H41.4679ZM35.658 4.11427L36.2257 0.960626C36.2257 0.960626 34.4741 0.320312 32.6482 0.320312C30.6744 0.320312 25.9871 1.14958 25.9871 5.18198C25.9871 8.97594 31.4885 9.02308 31.4885 11.0159C31.4885 13.0087 26.5539 12.6517 24.9254 11.395L24.3341 14.6924C24.3341 14.6924 26.1101 15.5217 28.8236 15.5217C31.5379 15.5217 35.6327 14.1707 35.6327 10.4938C35.6327 6.67553 30.0819 6.32001 30.0819 4.65991C30.0823 2.99942 33.956 3.21272 35.658 4.11427Z" fill="white"/>
</svg>
